
<svg version="1.0" xmlns="http://www.w3.org/2000/svg"
 width="225.000000pt" height="225.000000pt" viewBox="0 0 225.000000 225.000000"
 preserveAspectRatio="xMidYMid meet">

 <g transform="translate(0.000000,225.000000) scale(0.100000,-0.100000)" 
fill="#000000" stroke="none">
<path d="M1076 1949 c-14 -11 -29 -35 -34 -52 l-8 -32 -112 -3 -112 -3 0 -34
0 -35 -140 0 -140 0 -2 -597 c-2 -329 -2 -670 -1 -758 l2 -160 601 -3 600 -2
0 760 0 759 -127 3 -128 3 -3 33 -3 32 -110 0 c-89 0 -109 3 -109 15 0 77
-110 124 -174 74z m134 -27 c20 -24 27 -62 13 -62 -5 0 -15 15 -23 33 -26 55
-98 49 -121 -10 -11 -30 -33 -31 -24 0 23 73 111 96 155 39z m250 -132 l0 -50
-315 0 -315 0 0 50 0 50 315 0 315 0 0 -50z m-650 -35 c0 -12 -22 -15 -117
-17 l-118 -3 0 -705 0 -705 553 -3 552 -2 0 710 0 710 -100 0 c-82 0 -100 3
-100 15 0 12 19 15 115 15 l115 0 0 -740 0 -740 -580 0 -580 0 0 740 0 740
130 0 c108 0 130 -3 130 -15z m0 -70 l0 -35 336 0 336 0 -4 33 -3 32 93 3 92
3 0 -691 0 -690 -536 0 -536 0 3 682 c1 376 4 686 6 691 2 4 51 7 109 7 l104
0 0 -35z m648 8 l3 -23 -315 0 -316 0 0 25 0 25 313 -2 312 -3 3 -22z"/>
<path d="M1316 1504 c-8 -20 -8 -218 0 -238 9 -24 259 -24 268 0 8 20 8 218 0
238 -5 13 -27 16 -134 16 -107 0 -129 -3 -134 -16z m254 -119 l0 -115 -120 0
-120 0 0 115 0 115 120 0 120 0 0 -115z"/>
<path d="M1475 1410 c-54 -54 -70 -61 -80 -30 -3 11 -13 20 -21 20 -19 0 -18
-9 10 -55 l24 -39 68 66 c48 47 66 70 59 77 -8 8 -26 -4 -60 -39z"/>
<path d="M694 1394 c-4 -14 -2 -30 3 -35 5 -5 96 -8 218 -7 181 3 209 5 218
20 8 12 7 21 -2 32 -12 14 -44 16 -222 16 l-209 0 -6 -26z m419 -9 c1 -6 -72
-11 -200 -13 -177 -2 -203 0 -203 13 0 13 25 15 200 13 123 -2 201 -7 203 -13z"/>
<path d="M1322 1088 c-8 -8 -12 -51 -12 -128 0 -77 4 -120 12 -128 17 -17 239
-17 256 0 17 17 17 239 0 256 -17 17 -239 17 -256 0z m243 -128 l0 -115 -115
0 -115 0 -3 104 c-1 58 0 111 2 118 4 11 31 13 118 11 l113 -3 0 -115z"/>
<path d="M1465 980 l-49 -50 -22 27 c-29 37 -40 14 -13 -31 11 -20 24 -36 28
-36 9 0 131 124 131 133 0 19 -31 2 -75 -43z"/>
<path d="M694 975 c-4 -8 -4 -22 0 -30 8 -22 431 -22 440 0 3 8 3 22 0 30 -9
22 -432 22 -440 0z m426 -15 c0 -6 -75 -10 -205 -10 -130 0 -205 4 -205 10 0
6 75 10 205 10 130 0 205 -4 205 -10z"/>
<path d="M1316 654 c-8 -20 -8 -218 0 -238 9 -24 259 -24 268 0 8 20 8 218 0
238 -9 24 -259 24 -268 0z m237 0 c15 -5 17 -19 17 -120 l0 -114 -120 0 -120
0 0 113 c0 63 3 116 6 120 7 7 191 8 217 1z"/>
<path d="M693 554 c-3 -9 -2 -24 4 -33 9 -14 38 -16 218 -16 183 0 209 2 218
17 8 12 7 21 -2 32 -12 14 -44 16 -223 16 -184 0 -209 -2 -215 -16z m420 -19
c1 -6 -72 -11 -200 -13 -177 -2 -203 0 -203 13 0 13 25 15 200 13 123 -2 201
-7 203 -13z"/>
</g> 
</svg>
